<svg xmlns="http://www.w3.org/2000/svg" width="22.153" height="24" viewBox="0 0 22.153 24">
  <path id="to-do" d="M21.1,24H1.055A1.056,1.056,0,0,1,0,22.946V3A1.135,1.135,0,0,1,1.055,1.846h2.2a1.055,1.055,0,1,1,0,2.11H2.11V21.89H20.044V3.956H18.9a1.055,1.055,0,1,1,0-2.11h2.2A1.135,1.135,0,0,1,22.153,3V22.946A1.056,1.056,0,0,1,21.1,24Zm-5.338-8.7H6.393a1.055,1.055,0,0,1,0-2.11h9.368a1.055,1.055,0,1,1,0,2.11Zm0-4.747H6.393a1.055,1.055,0,0,1,0-2.111h9.368a1.055,1.055,0,0,1,0,2.111ZM15.3,6.01a1.32,1.32,0,0,1-1.319-1.319V1.319a1.319,1.319,0,0,1,2.638,0V4.692A1.32,1.32,0,0,1,15.3,6.01Zm-8.439,0A1.32,1.32,0,0,1,5.539,4.692V1.319a1.319,1.319,0,0,1,2.637,0V4.692A1.32,1.32,0,0,1,6.857,6.01Zm5.089-2.054H10.208a1.055,1.055,0,1,1,0-2.11h1.739a1.055,1.055,0,0,1,0,2.11Z" transform="translate(0 0)" fill="#bfc5d1"/>
</svg>
