<svg xmlns="http://www.w3.org/2000/svg" xmlns:xlink="http://www.w3.org/1999/xlink" viewBox="0 0 50 50" fill="#98A0A6">
  <path d="M21 2C19.355469 2 18 3.355469 18 5L18 7L10.15625 7C10.097656 6.992188 10.042969 6.984375 9.984375 6.984375C9.9375 6.988281 9.886719 6.992188 9.839844 7L8 7C7.640625 6.996094 7.304688 7.183594 7.121094 7.496094C6.941406 7.808594 6.941406 8.191406 7.121094 8.503906C7.304688 8.816406 7.640625 9.003906 8 9L9 9L9 45C9 46.644531 10.355469 48 12 48L38 48C39.644531 48 41 46.644531 41 45L41 9L42 9C42.359375 9.003906 42.695313 8.816406 42.878906 8.503906C43.058594 8.191406 43.058594 7.808594 42.878906 7.496094C42.695313 7.183594 42.359375 6.996094 42 7L40.167969 7C40.058594 6.980469 39.949219 6.980469 39.84375 7L32 7L32 5C32 3.355469 30.644531 2 29 2 Z M 21 4L29 4C29.554688 4 30 4.445313 30 5L30 7L20 7L20 5C20 4.445313 20.445313 4 21 4 Z M 11 9L18.832031 9C18.941406 9.019531 19.050781 9.019531 19.15625 9L30.832031 9C30.941406 9.019531 31.050781 9.019531 31.15625 9L39 9L39 45C39 45.554688 38.554688 46 38 46L12 46C11.445313 46 11 45.554688 11 45 Z M 17.988281 19.988281C17.582031 19.992188 17.21875 20.238281 17.0625 20.613281C16.910156 20.992188 17 21.421875 17.292969 21.707031L23.585938 28L17.292969 34.292969C17.03125 34.542969 16.925781 34.917969 17.019531 35.265625C17.109375 35.617188 17.382813 35.890625 17.734375 35.980469C18.082031 36.074219 18.457031 35.96875 18.707031 35.707031L25 29.414063L31.292969 35.707031C31.542969 35.96875 31.917969 36.074219 32.265625 35.980469C32.617188 35.890625 32.890625 35.617188 32.980469 35.265625C33.074219 34.917969 32.96875 34.542969 32.707031 34.292969L26.414063 28L32.707031 21.707031C33.003906 21.417969 33.089844 20.980469 32.929688 20.601563C32.769531 20.21875 32.394531 19.976563 31.980469 19.988281C31.71875 19.996094 31.472656 20.105469 31.292969 20.292969L25 26.585938L18.707031 20.292969C18.519531 20.097656 18.261719 19.992188 17.988281 19.988281Z" fill="#98A0A6" />
</svg>