<svg xmlns="http://www.w3.org/2000/svg" width="24.001" height="14.087" viewBox="0 0 24.001 14.087">
  <path id="preview" d="M12,14.087C4.606,14.087.354,7.889.176,7.625a1.042,1.042,0,0,1,0-1.162C.353,6.2,4.592,0,12,0c7.429,0,11.647,6.2,11.823,6.463a1.039,1.039,0,0,1,0,1.162C23.646,7.889,19.415,14.087,12,14.087Zm0-12c-5.029,0-8.419,3.465-9.643,4.954C3.588,8.531,6.993,12,12,12s8.41-3.466,9.642-4.956C20.411,5.554,17.007,2.087,12,2.087Zm.009,9.29a4.392,4.392,0,0,1-.611-.043A4.289,4.289,0,0,1,8.549,9.646,4.35,4.35,0,0,1,9.4,3.582a4.262,4.262,0,0,1,2.586-.871,4.381,4.381,0,0,1,.613.043,4.283,4.283,0,0,1,2.848,1.687A4.349,4.349,0,0,1,14.6,10.5,4.259,4.259,0,0,1,12.009,11.377ZM12,4.275a2.717,2.717,0,0,0-1.648.555A2.783,2.783,0,0,0,9.8,8.708a2.736,2.736,0,0,0,1.815,1.075A2.791,2.791,0,0,0,12,9.811a2.718,2.718,0,0,0,1.649-.554A2.782,2.782,0,0,0,14.2,5.378,2.727,2.727,0,0,0,12.384,4.3,2.788,2.788,0,0,0,12,4.275Zm.819,3a1.044,1.044,0,1,1,0-2.087,1.042,1.042,0,0,1,1.04,1.044,1.042,1.042,0,0,1-1.04,1.043Z" transform="translate(0.001 0)" fill="#bfc5d1"/>
</svg>
