<svg xmlns="http://www.w3.org/2000/svg" width="24" height="21.767" viewBox="0 0 24 21.767">
  <path id="heart" d="M12,21.767a1.113,1.113,0,0,1-.745-.285c-.043-.038-4.349-3.91-9.257-9.417A7.189,7.189,0,0,1,.628,4.182,6.841,6.841,0,0,1,6.756,0,6.421,6.421,0,0,1,12,2.366,6.427,6.427,0,0,1,17.244,0a6.838,6.838,0,0,1,6.127,4.182A7.189,7.189,0,0,1,22,12.065c-4.907,5.505-9.215,9.378-9.258,9.417A1.11,1.11,0,0,1,12,21.767ZM6.756,2.233A4.67,4.67,0,0,0,2.666,5.1a4.949,4.949,0,0,0,1,5.484c3.681,4.129,7.056,7.357,8.337,8.554,1.276-1.192,4.645-4.412,8.338-8.554a4.952,4.952,0,0,0,1-5.483,4.672,4.672,0,0,0-4.09-2.861,3.982,3.982,0,0,0-4.162,2.781A1.125,1.125,0,0,1,12,5.861h-.01a1.111,1.111,0,0,1-1.075-.845A3.979,3.979,0,0,0,6.756,2.233Zm11.171,8.643A1.122,1.122,0,0,1,16.81,9.759a1.117,1.117,0,1,1,1.117,1.117Zm1.162-2.487a.979.979,0,0,1-.974-.913c-.1-1.582-1.139-1.842-1.345-1.878a.976.976,0,0,1,.149-1.942,1,1,0,0,1,.133.009,3.732,3.732,0,0,1,3.013,3.683.976.976,0,0,1-.911,1.039Z" transform="translate(0)" fill="#bfc5d1"/>
</svg>
